<?xml version="1.0" encoding="UTF-8"?>
<svg width="105px" height="105px" viewBox="0 0 105 105" version="1.1" xmlns="http://www.w3.org/2000/svg" xmlns:xlink="http://www.w3.org/1999/xlink">
    <!-- Generator: Sketch 49.2 (51160) - http://www.bohemiancoding.com/sketch -->
    <title>illustration_verification </title>
    <desc>Created with Sketch.</desc>
    <defs>
        <path d="M18.5661551,7.98913043 L86.4338449,7.98913043 C89.6386504,7.98913043 92.2366585,10.5871386 92.2366585,13.7919441 L92.2366585,91.2080559 C92.2366585,94.4128614 89.6386504,97.0108696 86.4338449,97.0108696 L18.5661551,97.0108696 C15.3613496,97.0108696 12.7633415,94.4128614 12.7633415,91.2080559 L12.7633415,13.7919441 C12.7633415,10.5871386 15.3613496,7.98913043 18.5661551,7.98913043 Z" id="path-1"></path>
    </defs>
    <g id="Page-1" stroke="none" stroke-width="1" fill="none" fill-rule="evenodd">
        <g id="UI-kit" transform="translate(-368.000000, -773.000000)">
            <g id="illustration_verification-" transform="translate(368.000000, 773.000000)">
                <path d="M2.59662378,37.4137455 L52.5,0 L102.403376,37.4137455 C103.865041,38.5095905 104.725323,40.2297729 104.725323,42.056612 L104.725323,99.1971864 C104.725323,102.401992 102.127314,105 98.922509,105 L6.07749099,105 C2.87268552,105 0.274677363,102.401992 0.274677363,99.1971864 L0.274677363,42.056612 C0.274677363,40.2297729 1.13495871,38.5095905 2.59662378,37.4137455 Z" id="Rectangle-7" fill="#DDE4EE"></path>
                <g id="Rectangle-10">
                    <use fill="#FFFFFF" fill-rule="evenodd" xlink:href="#path-1"></use>
                    <path stroke="#CED8E8" stroke-width="1.02402593" d="M18.5661551,8.5011434 C15.6441266,8.5011434 13.2753544,10.8699155 13.2753544,13.7919441 L13.2753544,91.2080559 C13.2753544,94.1300845 15.6441266,96.4988566 18.5661551,96.4988566 L86.4338449,96.4988566 C89.3558734,96.4988566 91.7246456,94.1300845 91.7246456,91.2080559 L91.7246456,13.7919441 C91.7246456,10.8699155 89.3558734,8.5011434 86.4338449,8.5011434 L18.5661551,8.5011434 Z"></path>
                </g>
                <path d="M7.12268456,39.5978654 L52.5,71.3643691 L97.8773154,39.5978654 C99.8463761,38.2194196 102.560066,38.6982075 103.938512,40.6672681 C104.450631,41.398811 104.725323,42.2701811 104.725323,43.1631651 L104.725323,99.1971864 C104.725323,102.401992 102.127314,105 98.922509,105 L6.07749099,105 C2.87268552,105 0.274677363,102.401992 0.274677363,99.1971864 L0.274677363,43.1631651 C0.274677363,40.759561 2.22318348,38.8110549 4.62678758,38.8110549 C5.51977153,38.8110549 6.39114166,39.085747 7.12268456,39.5978654 Z" id="Rectangle-7-Copy-3" fill="#E9EEF5"></path>
                <path d="M55.684779,66.011212 L102.893751,97.0099482 C104.90293,98.3292319 105.462201,101.027485 104.142918,103.036664 C103.338311,104.262025 101.970888,105 100.504976,105 L4.49451637,105 C2.09091227,105 0.142406151,103.051494 0.142406151,100.64789 C0.142406151,99.1819773 0.880381282,97.8145543 2.10574176,97.0099482 L49.3147134,66.011212 C51.2482784,64.7415789 53.751214,64.7415789 55.684779,66.011212 Z" id="Rectangle-7-Copy-2" fill="#DDE4EE"></path>
                <polyline id="Rectangle-14" stroke="#29BD64" stroke-width="6" stroke-linecap="round" transform="translate(54.598602, 33.020863) rotate(315.000000) translate(-54.598602, -33.020863) " points="67.0872661 40.3891623 42.1099378 40.3891623 42.1099378 25.6525635"></polyline>
            </g>
        </g>
    </g>
</svg>