<?xml version="1.0" encoding="UTF-8"?>
<svg width="134px" height="107px" viewBox="0 0 134 107" version="1.1" xmlns="http://www.w3.org/2000/svg" xmlns:xlink="http://www.w3.org/1999/xlink">
    <!-- Generator: Sketch 49.2 (51160) - http://www.bohemiancoding.com/sketch -->
    <title>illustration_registration</title>
    <desc>Created with Sketch.</desc>
    <defs>
        <linearGradient x1="44.6854264%" y1="-76.8525829%" x2="44.6854264%" y2="173.396053%" id="linearGradient-1">
            <stop stop-color="#FCFFFF" offset="0%"></stop>
            <stop stop-color="#CAD5E6" offset="100%"></stop>
        </linearGradient>
        <path d="M5.29393215,14.0335551 C5.98289898,11.3948643 6.532052,7.10542736e-14 6.532052,7.10542736e-14 L34.7170583,7.10542736e-14 C34.7170583,7.10542736e-14 35.3013478,11.3498777 36.1258191,14.0335551 C36.9502905,16.7172324 39.2266593,18.1281932 40.604593,19.16409 L0.644517349,19.16409 C2.02245099,18.1281932 4.60496533,16.6722458 5.29393215,14.0335551 Z" id="path-2"></path>
    </defs>
    <g id="Page-1" stroke="none" stroke-width="1" fill="none" fill-rule="evenodd">
        <g id="UI-kit" transform="translate(-164.000000, -776.000000)">
            <g id="illustration_registration" transform="translate(164.000000, 776.000000)">
                <g id="imac">
                    <g>
                        <g id="::-stand" transform="translate(46.256228, 84.971540)">
                            <rect id="Rectangle-80" fill="#A2ADBA" x="0" y="20.7179351" width="41.2491103" height="1.03589675"></rect>
                            <path d="M2.25110253,19.16409 L38.9980078,19.16409 C39.9983133,19.16409 40.8944091,19.7826287 41.2491103,20.7179351 L0,20.7179351 L-4.4408921e-16,20.7179351 C0.354701259,19.7826287 1.25079704,19.16409 2.25110253,19.16409 Z" id="Rectangle-77" fill="#B0BED0"></path>
                            <mask id="mask-3" fill="white">
                                <use xlink:href="#path-2"></use>
                            </mask>
                            <use id="Mask" fill="url(#linearGradient-1)" xlink:href="#path-2"></use>
                            <rect id="Rectangle-123" fill="#B0BED0" opacity="0.5" mask="url(#mask-3)" x="3.09368327" y="3" width="35.0617438" height="1.03589675"></rect>
                        </g>
                        <g id="::-base">
                            <path d="M8.50793651,13.8930612 L125.492063,13.8930612 C130.190867,13.8930612 134,17.7021941 134,22.4009977 L134,82.9715398 C134,87.3898178 130.418278,90.9715398 126,90.9715398 L8,90.9715398 C3.581722,90.9715398 -5.51327055e-12,87.3898178 -5.51381163e-12,82.9715398 L-5.51381163e-12,22.4009977 C-5.51438707e-12,17.7021941 3.80913292,13.8930612 8.50793651,13.8930612 Z" id="dark-bezel" fill="#DDE4EE"></path>
                            <path d="M8.50793651,0 L125.492063,0 C130.190867,-9.2099081e-15 134,3.80913292 134,8.50793651 L134,76.9715398 L0,76.9715398 L0,8.50793651 C-5.75437477e-16,3.80913292 3.80913292,-2.68955746e-15 8.50793651,-3.55271368e-15 Z" id="dark-bezel-copy" fill="#DDE4EE"></path>
                            <path d="M67.9704398,82.3941182 C68.1822671,82.4754403 68.5093414,82.5836294 68.5093414,82.5836294 L69.2321561,82.3381482 C69.2321561,82.3381482 69.4435211,82.2786106 69.6352828,82.2786106 C69.8270446,82.2786106 70.2619672,82.3862255 70.4557002,82.5277938 C70.6494332,82.6693621 70.8117474,82.8904931 70.8117474,82.8904931 C70.8117474,82.8904931 70.3831158,83.1477645 70.2546054,83.5247343 C70.126095,83.9017041 70.1504196,84.0312012 70.1504196,84.0312012 C70.1504196,84.0312012 70.1410621,84.6048418 70.4482045,84.9257438 C70.7553469,85.2466458 70.9692308,85.3193787 70.9692308,85.3193787 C70.9692308,85.3193787 70.8559065,85.7357022 70.640526,86.0604284 C70.4251454,86.3851547 70.2783703,86.5731508 70.2783703,86.5731508 C70.2783703,86.5731508 70.0295996,86.8464032 69.841099,86.9035339 C69.6525985,86.9606646 69.7199384,86.9560096 69.6270813,86.9560096 C69.5342243,86.9560096 69.3420002,86.9150065 69.3420002,86.9150065 L68.9709494,86.778081 C68.9709494,86.778081 68.7528918,86.7100764 68.6015292,86.7100764 C68.4501665,86.7100764 68.1652923,86.7912885 68.1652923,86.7912885 C68.1652923,86.7912885 67.8612893,86.9076025 67.7663393,86.931806 C67.6713894,86.9560096 67.598233,86.9611045 67.5631637,86.9611045 C67.5280944,86.9611045 67.4032467,86.9597116 67.2818791,86.8882494 C67.1605116,86.8167871 67.0165108,86.7245423 66.8081514,86.4485042 C66.599792,86.1724662 66.1394373,85.5183954 66.0020319,84.5880667 C65.8646264,83.6577379 66.2033579,83.1243796 66.2033579,83.1243796 C66.2033579,83.1243796 66.5976991,82.3103525 67.5052421,82.2944816 C67.6896508,82.2912567 67.7586124,82.3127962 67.9704398,82.3941182 Z M68.4658394,82.2180222 C68.4658394,82.2180222 68.3984509,81.640643 68.8199275,81.2416933 C69.2414041,80.8427436 69.697804,80.7967433 69.697804,80.7967433 C69.697804,80.7967433 69.7913675,81.1631447 69.4369502,81.7098205 C69.0825329,82.2564963 68.4658394,82.2180222 68.4658394,82.2180222 Z" id="logo" fill="#BBC4D1"></path>
                            <rect id="camera-on-light" fill="#B0BED0" x="69.5769231" y="3.10487787" width="1.03076923" height="1.03495929" rx="0.515384615"></rect>
                            <rect id="camera" fill="#B0BED0" x="65.9692308" y="2.58739823" width="2.06153846" height="2.06991858" rx="1.03076923"></rect>
                            <rect id="microphone" fill="#B0BED0" x="63.3923077" y="3.10487787" width="1.03076923" height="1.03495929" rx="0.515384615"></rect>
                        </g>
                        <polygon id="wallpaper" fill="#FFFFFF" points="7.15302491 7.17159292 126.608541 7.17159292 126.608541 76.7999469 7.15302491 76.7999469"></polygon>
                    </g>
                </g>
                <path d="M76.1269841,27 C75.504568,27 75,27.504568 75,28.1269841 L75,32.8730159 C75,33.495432 75.504568,34 76.1269841,34 L116.873016,34 C117.495432,34 118,33.495432 118,32.8730159 L118,28.1269841 C118,27.504568 117.495432,27 116.873016,27 L76.1269841,27 Z" id="Rectangle-5" stroke="#DDE5EF" stroke-width="2"></path>
                <rect id="Rectangle-8" fill="#DDE5EF" x="14" y="27" width="45" height="3" rx="1.5"></rect>
                <rect id="Rectangle-8-Copy" fill="#DDE5EF" x="14" y="36" width="45" height="3" rx="1.5"></rect>
                <rect id="Rectangle-8-Copy-2" fill="#DDE5EF" x="14" y="45" width="45" height="3" rx="1.5"></rect>
                <rect id="Rectangle-8-Copy-3" fill="#DDE5EF" x="14" y="54" width="45" height="3" rx="1.5"></rect>
                <path d="M76.1269841,50 L116.873016,50 C118.047717,50 119,50.9522832 119,52.1269841 L119,56.8730159 C119,58.0477168 118.047717,59 116.873016,59 L76.1269841,59 C74.9522832,59 74,58.0477168 74,56.8730159 L74,52.1269841 C74,50.9522832 74.9522832,50 76.1269841,50 Z" id="Rectangle-5-Copy-2" fill="#29BD64"></path>
                <path d="M76.1269841,39 C75.504568,39 75,39.504568 75,40.1269841 L75,44.8730159 C75,45.495432 75.504568,46 76.1269841,46 L116.873016,46 C117.495432,46 118,45.495432 118,44.8730159 L118,40.1269841 C118,39.504568 117.495432,39 116.873016,39 L76.1269841,39 Z" id="Rectangle-5-Copy" stroke="#DDE5EF" stroke-width="2"></path>
                <path d="M67,21 L67,61" id="Path-29" stroke="#DDE5EF" stroke-width="1.06349206" stroke-linecap="round"></path>
            </g>
        </g>
    </g>
</svg>