<?xml version="1.0" encoding="UTF-8"?>
<svg width="131px" height="91px" viewBox="0 0 131 91" version="1.1" xmlns="http://www.w3.org/2000/svg" xmlns:xlink="http://www.w3.org/1999/xlink">
    <!-- Generator: Sketch 49.2 (51160) - http://www.bohemiancoding.com/sketch -->
    <title>illustration_trade</title>
    <desc>Created with Sketch.</desc>
    <defs>
        <path d="M4.33057851,0 L126.669421,0 C129.061134,-4.39350453e-16 131,1.93886604 131,4.33057851 L131,86.6694215 C131,89.061134 129.061134,91 126.669421,91 L4.33057851,91 C1.93886604,91 -2.37163496e-15,89.061134 -2.66453526e-15,86.6694215 L-8.8817842e-16,4.33057851 C-1.18107872e-15,1.93886604 1.93886604,4.88024255e-15 4.33057851,4.4408921e-15 Z" id="path-1"></path>
        <path d="M4.33057851,0 L126.669421,0 C129.061134,8.05771916e-15 131,1.93886604 131,4.33057851 L131,6.5 L0,6.5 L-8.8817842e-16,4.33057851 C-1.18107872e-15,1.93886604 1.93886604,4.39350453e-16 4.33057851,0 Z" id="path-2"></path>
    </defs>
    <g id="Page-1" stroke="none" stroke-width="1" fill="none" fill-rule="evenodd">
        <g id="UI-kit" transform="translate(-564.000000, -780.000000)">
            <g id="illustration_trade" transform="translate(564.000000, 780.000000)">
                <g id="Rectangle-9">
                    <use fill="#FFFFFF" fill-rule="evenodd" xlink:href="#path-1"></use>
                    <path stroke="#CCD7E7" stroke-width="2.16528926" d="M4.33057851,1.08264463 C2.53679416,1.08264463 1.08264463,2.53679416 1.08264463,4.33057851 L1.08264463,86.6694215 C1.08264463,88.4632058 2.53679416,89.9173554 4.33057851,89.9173554 L126.669421,89.9173554 C128.463206,89.9173554 129.917355,88.4632058 129.917355,86.6694215 L129.917355,4.33057851 C129.917355,2.53679416 128.463206,1.08264463 126.669421,1.08264463 L4.33057851,1.08264463 Z"></path>
                </g>
                <g id="Rectangle-9-Copy">
                    <use fill="#CCD7E7" fill-rule="evenodd" xlink:href="#path-2"></use>
                    <path stroke="#CCD7E7" stroke-width="2.16528926" d="M1.08264463,5.41735537 L129.917355,5.41735537 L129.917355,4.33057851 C129.917355,2.53679416 128.463206,1.08264463 126.669421,1.08264463 L4.33057851,1.08264463 C2.53679416,1.08264463 1.08264463,2.53679416 1.08264463,4.33057851 L1.08264463,5.41735537 Z"></path>
                </g>
                <ellipse id="Oval-2" fill="#EF5C6E" cx="115.842975" cy="3.25" rx="1.08264463" ry="1.08333333"></ellipse>
                <ellipse id="Oval-2-Copy" fill="#EAAB43" cx="120.173554" cy="3.25" rx="1.08264463" ry="1.08333333"></ellipse>
                <ellipse id="Oval-2-Copy-2" fill="#5DA90B" cx="124.504132" cy="3.25" rx="1.08264463" ry="1.08333333"></ellipse>
                <rect id="Rectangle-8" fill="#DDE5EF" x="74.7024793" y="31.4166667" width="45.4710744" height="3.25" rx="1.625"></rect>
                <rect id="Rectangle-8-Copy" fill="#DDE5EF" x="74.7024793" y="41.1666667" width="45.4710744" height="3.25" rx="1.625"></rect>
                <rect id="Rectangle-8-Copy-2" fill="#DDE5EF" x="74.7024793" y="49.8333333" width="45.4710744" height="3.25" rx="1.625"></rect>
                <rect id="Rectangle-8-Copy-3" fill="#DDE5EF" x="74.7024793" y="59.5833333" width="45.4710744" height="3.25" rx="1.625"></rect>
                <polyline id="Path-30" stroke="#DDE5EF" stroke-width="1.08264463" stroke-linecap="round" points="12.0047733 26.4014947 12.0047733 65.6757809 55.1929194 65.6757809"></polyline>
                <rect id="Rectangle-41" fill="#29BD64" x="16" y="40" width="6" height="21" rx="1"></rect>
                <rect id="Rectangle-41-Copy" fill="#29BD64" x="24" y="35" width="6" height="26" rx="1"></rect>
                <rect id="Rectangle-41-Copy-2" fill="#29BD64" x="32" y="31" width="6" height="30" rx="1"></rect>
                <rect id="Rectangle-41-Copy-3" fill="#29BD64" x="40" y="28" width="6" height="33" rx="1"></rect>
            </g>
        </g>
    </g>
</svg>