<?xml version="1.0" encoding="UTF-8"?>
<svg width="176px" height="16px" viewBox="0 0 176 16" version="1.1" xmlns="http://www.w3.org/2000/svg" xmlns:xlink="http://www.w3.org/1999/xlink">
    <!-- Generator: Sketch 49.2 (51160) - http://www.bohemiancoding.com/sketch -->
    <title>logo</title>
    <desc>Created with Sketch.</desc>
    <defs></defs>
    <g id="Symbols" stroke="none" stroke-width="1" fill="none" fill-rule="evenodd">
        <g id="Header-login-simple-profile" transform="translate(-20.000000, -44.000000)">
            <g id="Group">
                <g id="logo" transform="translate(20.000000, 44.000000)">
                    <path d="M10.6191959,0.520172662 L10.6191959,2.52897842 C9.27628866,2.49289209 7.22665979,2.47505036 5.61878866,2.47505036 C3.74584021,2.47505036 3.03894845,2.54682014 3.03894845,3.44351079 C3.03894845,4.19694964 3.55141237,4.41202878 4.80597938,4.7171223 L7.88042268,5.55988489 C10.3893866,6.29507914 11.1846186,7.40719424 11.1846186,9.21882014 C11.1846186,12.0346475 9.61207216,12.8416691 5.49506701,12.8416691 C4.45256186,12.8416691 2.54428866,12.8055827 0.194314433,12.3393957 L0.388572165,10.2051799 C3.1626701,10.2587626 4.39960309,10.2770072 5.51264433,10.2770072 C7.52706186,10.2770072 8.12769588,10.1155108 8.12769588,9.27240288 C8.12769588,8.5011223 7.63303608,8.30394245 6.46680928,8.05277698 L3.25101031,7.12034532 C0.865654639,6.38509353 0,5.30871942 0,3.47959712 C0,0.645928058 1.6608866,0 5.58340722,0 C7.12057216,0 8.94056186,0.0896690647 10.6191959,0.520172662" id="Fill-1" fill="#FFFFFF"></path>
                    <path d="M16.9155278,9.63109065 C16.9155278,10.2587741 17.2866361,10.4741986 18.2408577,10.4741986 L19.7603887,10.4741986 L20.0961722,12.446918 C19.2833062,12.7159252 17.8344814,12.8234935 17.1100124,12.8234935 C15.1133423,12.8234935 13.9824969,11.9089036 13.9824969,10.2948604 L13.9824969,5.63166619 L11.9858835,5.63166619 L11.9858835,3.73042878 L13.9824969,3.73042878 L13.9824969,0.578486331 L16.9155278,0.578486331 L16.9155278,3.73042878 L20.1844557,3.73042878 L20.1844557,5.63166619 L16.9155278,5.63166619 L16.9155278,9.63109065 Z" id="Fill-3" fill="#FFFFFF"></path>
                    <path d="M24.6927887,8.1785036 C24.6927887,10.2230504 25.2582113,10.7253237 27.2548814,10.7253237 C29.2161134,10.7253237 29.8169175,10.2230504 29.8169175,8.1785036 C29.8169175,6.09792806 29.2161134,5.59594245 27.2548814,5.59594245 C25.2582113,5.59594245 24.6927887,6.09792806 24.6927887,8.1785036 M32.8736134,8.1785036 C32.8736134,11.5859856 31.3542526,12.8235108 27.2548814,12.8235108 C23.1556237,12.8235108 21.6184588,11.5859856 21.6184588,8.1785036 C21.6184588,4.75283453 23.1556237,3.49746763 27.2548814,3.49746763 C31.3542526,3.49746763 32.8736134,4.75283453 32.8736134,8.1785036" id="Fill-5" fill="#FFFFFF"></path>
                    <path d="M44.2569974,4.05336403 L43.9212706,5.88283165 C42.7550438,5.86498993 41.5889871,5.84674532 40.7407964,5.84674532 C38.5145438,5.84674532 37.7546366,6.34901871 37.7546366,8.1606446 C37.7546366,9.98976691 38.5145438,10.4741986 40.7407964,10.4741986 C41.4653222,10.4741986 42.9140902,10.4741986 44.1509098,10.3306014 L44.4336778,12.1958101 C43.2498737,12.6441554 41.6773273,12.8234935 40.2283325,12.8234935 C36.1467088,12.8234935 34.6803067,11.5859683 34.6803067,8.1606446 C34.6803067,4.73497554 36.1645129,3.49745036 40.2461366,3.49745036 C41.376982,3.49745036 43.0554459,3.62291799 44.2569974,4.05336403" id="Fill-7" fill="#FFFFFF"></path>
                    <polygon id="Fill-9" fill="#FFFFFF" points="49.2970784 8.55505036 49.2970784 12.6084029 46.3640474 12.6084029 46.3640474 0.578532374 49.2970784 0.578532374 49.2970784 6.79735252 50.3395835 6.79735252 53.2374031 3.73041727 56.7711814 3.73041727 52.8840423 7.65835971 52.8840423 7.7301295 57.1599237 12.6084029 53.6083412 12.6084029 50.3220062 8.55505036"></polygon>
                    <path d="M68.2253057,3.83829065 L68.0132438,5.66741295 C66.5644191,5.64957122 65.0978469,5.63167194 63.6844036,5.63167194 C61.8290325,5.63167194 61.3166253,5.63167194 61.3166253,6.13400288 C61.3166253,6.60018993 61.7584964,6.61803165 62.8539603,6.8513554 L65.8753314,7.42505324 C67.7306459,7.85555683 68.5964139,8.48324029 68.5964139,10.0437007 C68.5964139,12.2496863 67.076883,12.8056 63.560682,12.8056 C62.6772799,12.8056 60.786584,12.7699165 58.6839964,12.4830101 L58.8606768,10.6535424 C59.7794603,10.6713842 61.2814139,10.6892835 62.7831974,10.6892835 C65.1509758,10.6892835 65.7516098,10.6174561 65.7516098,10.0976288 C65.7516098,9.64893813 65.2039345,9.6310964 64.1084706,9.36208921 L61.1576923,8.78833381 C59.1081201,8.28606043 58.4719345,7.44329784 58.4719345,6.02608921 C58.4719345,4.25054964 59.7618263,3.47961439 63.1543057,3.49745612 C64.7268521,3.49745612 66.8294397,3.64070791 68.2253057,3.83829065" id="Fill-11" fill="#FFFFFF"></path>
                    <path d="M86.9357897,12.4647827 C84.7802433,12.6623655 82.1298103,12.6623655 79.7267072,12.6623655 C77.7124598,12.6623655 76.4226814,11.6577612 76.404934,10.097646 L76.404934,2.74403453 C76.4226814,1.18391942 77.7302072,0.179372662 79.7267072,0.179372662 C82.1298103,0.179372662 84.7802433,0.179372662 86.9357897,0.376552518 L86.7944907,2.5646964 L80.4849134,2.5646964 C79.6721041,2.5646964 79.3009392,2.8337036 79.3009392,3.40780432 L79.3009392,5.12941583 L85.928666,5.12941583 L85.928666,7.2635741 L79.3009392,7.2635741 L79.3009392,9.43387626 C79.3009392,10.0258763 79.6721041,10.2948259 80.4849134,10.2948259 L86.7944907,10.2948259 L86.9357897,12.4647827 Z" id="Fill-13" fill="#FFFFFF"></path>
                    <path d="M111.888229,4.05336403 L111.552446,5.88283165 C110.386276,5.86498993 109.220219,5.84674532 108.372028,5.84674532 C106.145776,5.84674532 105.385869,6.34901871 105.385869,8.1606446 C105.385869,9.98976691 106.145776,10.4741986 108.372028,10.4741986 C109.096554,10.4741986 110.545322,10.4741986 111.782142,10.3306014 L112.06491,12.1958101 C110.881106,12.6441554 109.308616,12.8234935 107.859564,12.8234935 C103.777941,12.8234935 102.311539,11.5859683 102.311539,8.1606446 C102.311539,4.73497554 103.795745,3.49745036 107.877369,3.49745036 C109.008214,3.49745036 110.686678,3.62291799 111.888229,4.05336403" id="Fill-15" fill="#FFFFFF"></path>
                    <path d="M124.632064,5.95463597 L124.632064,12.6083914 L121.699033,12.6083914 L121.699033,6.8692259 C121.699033,6.15181583 121.345729,5.93644892 120.409141,5.93644892 C119.366693,5.93644892 118.412528,6.15181583 116.928322,6.65414676 L116.928322,12.6083914 L113.995291,12.6083914 L113.995291,0.578520863 L116.928322,0.578520863 C116.928322,0.578520863 116.872358,4.9238446 116.928322,4.9238446 C118.500868,3.91958561 119.932059,3.49748489 121.504832,3.49748489 C123.536657,3.49748489 124.632064,4.34024748 124.632064,5.95463597" id="Fill-17" fill="#FFFFFF"></path>
                    <path d="M129.621256,9.8822446 C129.621256,10.4381007 130.080761,10.7071655 131.07008,10.7071655 C131.97123,10.7071655 133.225797,10.3666763 134.285936,9.75683453 L134.285936,8.77047482 L130.840441,8.77047482 C129.939235,8.78831655 129.621256,9.09306475 129.621256,9.55930935 L129.621256,9.8822446 Z M137.21908,6.8152518 L137.21908,12.6084029 L134.285936,12.6084029 L134.285936,11.0840288 C133.455436,11.8731511 132.271632,12.823482 130.257441,12.823482 C128.207812,12.823482 126.705859,11.9446331 126.705859,10.2948489 L126.705859,9.39815827 C126.705859,7.98129496 127.942792,7.12034532 130.045323,7.12034532 L134.285936,7.12034532 L134.285936,6.8152518 C134.268302,5.97248921 133.826601,5.72138129 132.307013,5.72138129 C131.176225,5.72138129 129.303276,5.77530935 127.500864,5.84673381 L127.218266,3.92794245 C128.843771,3.69467626 131.335271,3.49743885 132.97841,3.49743885 C135.734874,3.49743885 137.21908,4.26877698 137.21908,6.8152518 Z" id="Fill-19" fill="#FFFFFF"></path>
                    <path d="M150.282635,5.95463597 L150.282635,12.6083914 L147.349604,12.6083914 L147.349604,6.8692259 C147.349604,6.15181583 146.9963,5.93644892 146.059712,5.93644892 C145.035011,5.93644892 144.063099,6.20539856 142.578893,6.67198849 L142.578893,12.6083914 L139.645862,12.6083914 L139.645862,3.73040576 L142.578893,3.73040576 L142.578893,5.0576 C144.186764,4.03549928 145.529671,3.49748489 147.155176,3.49748489 C149.187228,3.49748489 150.282635,4.34024748 150.282635,5.95463597" id="Fill-21" fill="#FFFFFF"></path>
                    <path d="M160.086266,6.33118273 C160.086266,5.48807482 159.520787,5.27299568 157.683276,5.27299568 C155.827905,5.27299568 155.227158,5.48807482 155.227158,6.33118273 C155.227158,7.12030504 155.827905,7.38936978 157.683276,7.38936978 C159.503266,7.38936978 160.086266,7.12030504 160.086266,6.33118273 Z M158.884714,12.2675856 L155.52756,12.0164201 C155.050477,12.3394129 154.838415,12.5544345 154.838415,12.9849381 C154.838415,13.7562187 155.43922,13.8816288 157.771616,13.8816288 C160.139225,13.8816288 160.757606,13.738377 160.757606,13.0388662 C160.757606,12.429082 160.351287,12.375154 158.884714,12.2675856 Z M162.595343,5.11155683 C162.736642,5.45233381 162.807348,5.86493813 162.807348,6.33118273 C162.807348,8.35783022 161.517457,9.14701007 157.683276,9.14701007 C156.87041,9.14701007 156.163689,9.11092374 155.562941,9.03949928 C155.209524,9.37993094 155.280287,10.0079597 156.28741,10.0615424 L160.43957,10.402377 C162.719065,10.5996144 163.567086,11.4426647 163.567086,13.0925065 C163.567086,15.4420892 162.047498,15.9980029 157.806998,15.9980029 C153.301251,15.9980029 152.029106,15.3167367 152.029106,13.3797007 C152.029106,12.4647655 152.470807,11.9268086 153.689993,11.4426647 C152.735828,10.6357007 153.071611,9.20059281 154.131694,8.71650647 C152.983271,8.28606043 152.523766,7.5147223 152.523766,6.33118273 C152.523766,4.26879424 153.849096,3.49745612 157.70091,3.49745612 C158.86708,3.49745612 159.803668,3.56928345 160.545771,3.73043453 L164.132452,3.73043453 L163.973405,4.95006043 L162.595343,5.11155683 Z" id="Fill-23" fill="#FFFFFF"></path>
                    <path d="M168.264335,7.4072 L171.957216,7.4072 C172.858366,7.4072 173.017299,7.08426475 173.017299,6.54625036 C172.999722,5.77531511 172.451933,5.54199137 170.914711,5.54199137 C169.006438,5.52414964 168.370423,5.82889784 168.264335,7.4072 M175.438036,10.3305957 L175.703057,12.1243223 C174.466294,12.6623367 172.487258,12.8234878 170.950093,12.8234878 C166.797763,12.8234878 165.22516,11.4066245 165.22516,8.19637986 C165.22516,4.68104173 166.850835,3.4974446 170.791046,3.4974446 C174.501675,3.4974446 175.968077,4.55563165 175.985881,6.60017842 C176.003459,8.23212086 175.084675,9.03948777 172.770026,9.03948777 L168.352675,9.03948777 C168.617639,10.2409266 169.465887,10.5277755 171.303454,10.5277755 C172.398918,10.5277755 174.006789,10.4741928 175.438036,10.3305957" id="Fill-26" fill="#FFFFFF"></path>
                    <polygon id="Fill-29" fill="#29BD64" points="101.32282 12.5794705 98.2001809 12.5794705 95.0962531 8.04479424 92.0217531 12.5386072 88.9285985 12.5386072 92.2885881 8.02465036 89.2251448 3.74148489 92.2831448 3.74148489 95.0956294 7.94983022 97.9365211 3.70119712 101.024006 3.70119712 97.9299438 8.02349928"></polygon>
                </g>
            </g>
        </g>
    </g>
</svg>